<mxfile host="app.diagrams.net" modified="2023-02-20T01:15:02.323Z" agent="5.0 (Windows NT 10.0; Win64; x64) AppleWebKit/537.36 (KHTML, like Gecko) Chrome/109.0.0.0 Safari/537.36" etag="QvqyuyTTDpcl7HwFIGVZ" version="20.8.20" type="github">
  <diagram name="Page-1" id="03018318-947c-dd8e-b7a3-06fadd420f32">
    <mxGraphModel dx="3489" dy="1897" grid="1" gridSize="10" guides="1" tooltips="1" connect="1" arrows="1" fold="1" page="1" pageScale="1" pageWidth="1100" pageHeight="850" background="none" math="0" shadow="0">
      <root>
        <mxCell id="0" />
        <mxCell id="1" parent="0" />
        <mxCell id="9oPECJLN3mcHFEdt0U46-1" value="" style="whiteSpace=wrap;html=1;rounded=0;shadow=0;labelBackgroundColor=none;strokeColor=#000000;strokeWidth=1;fillColor=none;fontFamily=Verdana;fontSize=12;fontColor=#000000;align=center;comic=1;" parent="1" vertex="1">
          <mxGeometry x="220" y="120" width="740" height="810" as="geometry" />
        </mxCell>
        <mxCell id="9oPECJLN3mcHFEdt0U46-2" value="LOGO" style="whiteSpace=wrap;html=1;rounded=0;shadow=0;labelBackgroundColor=none;strokeWidth=1;fontFamily=Verdana;fontSize=28;align=center;comic=1;" parent="1" vertex="1">
          <mxGeometry x="240" y="160" width="190" height="50" as="geometry" />
        </mxCell>
        <mxCell id="9oPECJLN3mcHFEdt0U46-3" value="교회 소개" style="text;html=1;points=[];align=left;verticalAlign=top;spacingTop=-4;fontSize=14;fontFamily=Verdana" parent="1" vertex="1">
          <mxGeometry x="490" y="175" width="60" height="20" as="geometry" />
        </mxCell>
        <mxCell id="9oPECJLN3mcHFEdt0U46-4" value="예배와 말씀" style="text;html=1;points=[];align=left;verticalAlign=top;spacingTop=-4;fontSize=14;fontFamily=Verdana" parent="1" vertex="1">
          <mxGeometry x="590" y="175" width="60" height="20" as="geometry" />
        </mxCell>
        <mxCell id="9oPECJLN3mcHFEdt0U46-5" value="양육과 교육" style="text;html=1;points=[];align=left;verticalAlign=top;spacingTop=-4;fontSize=14;fontFamily=Verdana" parent="1" vertex="1">
          <mxGeometry x="690" y="175" width="60" height="20" as="geometry" />
        </mxCell>
        <mxCell id="9oPECJLN3mcHFEdt0U46-6" value="돌봄과 선교" style="text;html=1;points=[];align=left;verticalAlign=top;spacingTop=-4;fontSize=14;fontFamily=Verdana" parent="1" vertex="1">
          <mxGeometry x="790" y="175" width="60" height="20" as="geometry" />
        </mxCell>
        <mxCell id="9oPECJLN3mcHFEdt0U46-7" value="" style="line;strokeWidth=1;html=1;rounded=0;shadow=0;labelBackgroundColor=none;fillColor=none;fontFamily=Verdana;fontSize=14;fontColor=#000000;align=center;comic=1;" parent="1" vertex="1">
          <mxGeometry x="220" y="240" width="740" height="10" as="geometry" />
        </mxCell>
        <mxCell id="9oPECJLN3mcHFEdt0U46-10" value="네이버 맵" style="rounded=0;whiteSpace=wrap;html=1;" parent="1" vertex="1">
          <mxGeometry x="250" y="400" width="680" height="230" as="geometry" />
        </mxCell>
        <mxCell id="9oPECJLN3mcHFEdt0U46-12" value="화면 설명" style="shape=table;startSize=30;container=1;collapsible=0;childLayout=tableLayout;fixedRows=1;rowLines=0;fontStyle=0;strokeColor=default;fontSize=16;fontColor=#000000;fillColor=#CCCCCC;" parent="1" vertex="1">
          <mxGeometry x="1000" y="120" width="270" height="60" as="geometry" />
        </mxCell>
        <mxCell id="9oPECJLN3mcHFEdt0U46-13" value="" style="shape=tableRow;horizontal=0;startSize=0;swimlaneHead=0;swimlaneBody=0;top=0;left=0;bottom=0;right=0;collapsible=0;dropTarget=0;fillColor=none;points=[[0,0.5],[1,0.5]];portConstraint=eastwest;strokeColor=inherit;fontSize=16;fontColor=#FFFFFF;" parent="9oPECJLN3mcHFEdt0U46-12" vertex="1">
          <mxGeometry y="30" width="270" height="30" as="geometry" />
        </mxCell>
        <mxCell id="9oPECJLN3mcHFEdt0U46-14" value="1" style="shape=partialRectangle;html=1;whiteSpace=wrap;connectable=0;fillColor=none;top=0;left=0;bottom=0;right=0;overflow=hidden;pointerEvents=1;strokeColor=inherit;fontSize=16;fontColor=#000000;" parent="9oPECJLN3mcHFEdt0U46-13" vertex="1">
          <mxGeometry width="40" height="30" as="geometry">
            <mxRectangle width="40" height="30" as="alternateBounds" />
          </mxGeometry>
        </mxCell>
        <mxCell id="9oPECJLN3mcHFEdt0U46-15" value="네이버 맵" style="shape=partialRectangle;html=1;whiteSpace=wrap;connectable=0;fillColor=none;top=0;left=0;bottom=0;right=0;align=left;spacingLeft=6;overflow=hidden;strokeColor=inherit;fontSize=15;fontColor=#000000;" parent="9oPECJLN3mcHFEdt0U46-13" vertex="1">
          <mxGeometry x="40" width="230" height="30" as="geometry">
            <mxRectangle width="230" height="30" as="alternateBounds" />
          </mxGeometry>
        </mxCell>
        <mxCell id="9oPECJLN3mcHFEdt0U46-25" value="" style="line;strokeWidth=1;html=1;rounded=0;shadow=0;labelBackgroundColor=none;fillColor=none;fontFamily=Verdana;fontSize=14;fontColor=#000000;align=center;comic=1;" parent="1" vertex="1">
          <mxGeometry x="220" y="850" width="740" height="10" as="geometry" />
        </mxCell>
        <mxCell id="9oPECJLN3mcHFEdt0U46-26" value="로그인" style="text;html=1;strokeColor=none;fillColor=none;align=center;verticalAlign=middle;whiteSpace=wrap;rounded=0;fontColor=#000000;" parent="1" vertex="1">
          <mxGeometry x="870" y="880" width="60" height="30" as="geometry" />
        </mxCell>
        <mxCell id="9oPECJLN3mcHFEdt0U46-27" value="FOOTER" style="text;html=1;strokeColor=none;fillColor=none;align=center;verticalAlign=middle;whiteSpace=wrap;rounded=0;fontColor=#000000;" parent="1" vertex="1">
          <mxGeometry x="240" y="880" width="60" height="30" as="geometry" />
        </mxCell>
        <mxCell id="9oPECJLN3mcHFEdt0U46-30" value="&lt;font color=&quot;#ffffff&quot;&gt;1&lt;/font&gt;" style="ellipse;whiteSpace=wrap;html=1;aspect=fixed;fillColor=#F83232;strokeColor=#b85450;" parent="1" vertex="1">
          <mxGeometry x="920" y="390" width="20" height="20" as="geometry" />
        </mxCell>
        <mxCell id="9oPECJLN3mcHFEdt0U46-32" value="&lt;p style=&quot;line-height: 110%; font-size: 16px;&quot; class=&quot;0&quot;&gt;서울시 서대문구 증가로 &lt;span style=&quot;font-family: 굴림; letter-spacing: -0.5pt;&quot; lang=&quot;EN-US&quot;&gt;130 (&lt;/span&gt;&lt;span style=&quot;font-family: 굴림; letter-spacing: -0.5pt;&quot;&gt;남가좌동 &lt;/span&gt;&lt;span style=&quot;font-family: 굴림; letter-spacing: -0.5pt;&quot; lang=&quot;EN-US&quot;&gt;341-10)&lt;/span&gt;&lt;/p&gt;" style="text;html=1;strokeColor=none;fillColor=none;align=center;verticalAlign=middle;whiteSpace=wrap;rounded=0;" parent="1" vertex="1">
          <mxGeometry x="420" y="340" width="340" height="30" as="geometry" />
        </mxCell>
        <mxCell id="9oPECJLN3mcHFEdt0U46-33" value="&lt;font style=&quot;font-size: 30px;&quot;&gt;&lt;b&gt;오시는 길&lt;/b&gt;&lt;/font&gt;" style="text;html=1;strokeColor=none;fillColor=none;align=center;verticalAlign=middle;whiteSpace=wrap;rounded=0;" parent="1" vertex="1">
          <mxGeometry x="510" y="280" width="160" height="30" as="geometry" />
        </mxCell>
        <mxCell id="9oPECJLN3mcHFEdt0U46-53" value="" style="whiteSpace=wrap;html=1;rounded=0;shadow=0;labelBackgroundColor=none;strokeColor=#000000;strokeWidth=1;fillColor=none;fontFamily=Verdana;fontSize=12;fontColor=#000000;align=center;comic=1;" parent="1" vertex="1">
          <mxGeometry x="220" y="940" width="740" height="810" as="geometry" />
        </mxCell>
        <mxCell id="9oPECJLN3mcHFEdt0U46-54" value="LOGO" style="whiteSpace=wrap;html=1;rounded=0;shadow=0;labelBackgroundColor=none;strokeWidth=1;fontFamily=Verdana;fontSize=28;align=center;comic=1;" parent="1" vertex="1">
          <mxGeometry x="240" y="990" width="190" height="50" as="geometry" />
        </mxCell>
        <mxCell id="9oPECJLN3mcHFEdt0U46-55" value="교회 소개" style="text;html=1;points=[];align=left;verticalAlign=top;spacingTop=-4;fontSize=14;fontFamily=Verdana" parent="1" vertex="1">
          <mxGeometry x="490" y="1005" width="60" height="20" as="geometry" />
        </mxCell>
        <mxCell id="9oPECJLN3mcHFEdt0U46-56" value="예배와 말씀" style="text;html=1;points=[];align=left;verticalAlign=top;spacingTop=-4;fontSize=14;fontFamily=Verdana" parent="1" vertex="1">
          <mxGeometry x="590" y="1005" width="60" height="20" as="geometry" />
        </mxCell>
        <mxCell id="9oPECJLN3mcHFEdt0U46-57" value="양육과 교육" style="text;html=1;points=[];align=left;verticalAlign=top;spacingTop=-4;fontSize=14;fontFamily=Verdana" parent="1" vertex="1">
          <mxGeometry x="690" y="1005" width="60" height="20" as="geometry" />
        </mxCell>
        <mxCell id="9oPECJLN3mcHFEdt0U46-58" value="돌봄과 선교" style="text;html=1;points=[];align=left;verticalAlign=top;spacingTop=-4;fontSize=14;fontFamily=Verdana" parent="1" vertex="1">
          <mxGeometry x="790" y="1005" width="60" height="20" as="geometry" />
        </mxCell>
        <mxCell id="9oPECJLN3mcHFEdt0U46-59" value="" style="line;strokeWidth=1;html=1;rounded=0;shadow=0;labelBackgroundColor=none;fillColor=none;fontFamily=Verdana;fontSize=14;fontColor=#000000;align=center;comic=1;" parent="1" vertex="1">
          <mxGeometry x="220" y="1070" width="740" height="10" as="geometry" />
        </mxCell>
        <mxCell id="9oPECJLN3mcHFEdt0U46-61" value="화면 설명" style="shape=table;startSize=30;container=1;collapsible=0;childLayout=tableLayout;fixedRows=1;rowLines=0;fontStyle=0;strokeColor=default;fontSize=16;fontColor=#000000;fillColor=#CCCCCC;" parent="1" vertex="1">
          <mxGeometry x="1000" y="940" width="270" height="120" as="geometry" />
        </mxCell>
        <mxCell id="9oPECJLN3mcHFEdt0U46-62" value="" style="shape=tableRow;horizontal=0;startSize=0;swimlaneHead=0;swimlaneBody=0;top=0;left=0;bottom=0;right=0;collapsible=0;dropTarget=0;fillColor=none;points=[[0,0.5],[1,0.5]];portConstraint=eastwest;strokeColor=inherit;fontSize=16;fontColor=#FFFFFF;" parent="9oPECJLN3mcHFEdt0U46-61" vertex="1">
          <mxGeometry y="30" width="270" height="30" as="geometry" />
        </mxCell>
        <mxCell id="9oPECJLN3mcHFEdt0U46-63" value="1" style="shape=partialRectangle;html=1;whiteSpace=wrap;connectable=0;fillColor=none;top=0;left=0;bottom=0;right=0;overflow=hidden;pointerEvents=1;strokeColor=inherit;fontSize=16;fontColor=#000000;" parent="9oPECJLN3mcHFEdt0U46-62" vertex="1">
          <mxGeometry width="40" height="30" as="geometry">
            <mxRectangle width="40" height="30" as="alternateBounds" />
          </mxGeometry>
        </mxCell>
        <mxCell id="9oPECJLN3mcHFEdt0U46-64" value="제목 클릭시 구체적인 화면으로" style="shape=partialRectangle;html=1;whiteSpace=wrap;connectable=0;fillColor=none;top=0;left=0;bottom=0;right=0;align=left;spacingLeft=6;overflow=hidden;strokeColor=inherit;fontSize=15;fontColor=#000000;" parent="9oPECJLN3mcHFEdt0U46-62" vertex="1">
          <mxGeometry x="40" width="230" height="30" as="geometry">
            <mxRectangle width="230" height="30" as="alternateBounds" />
          </mxGeometry>
        </mxCell>
        <mxCell id="9oPECJLN3mcHFEdt0U46-370" value="" style="shape=tableRow;horizontal=0;startSize=0;swimlaneHead=0;swimlaneBody=0;top=0;left=0;bottom=0;right=0;collapsible=0;dropTarget=0;fillColor=none;points=[[0,0.5],[1,0.5]];portConstraint=eastwest;strokeColor=inherit;fontSize=16;fontColor=#FFFFFF;" parent="9oPECJLN3mcHFEdt0U46-61" vertex="1">
          <mxGeometry y="60" width="270" height="30" as="geometry" />
        </mxCell>
        <mxCell id="9oPECJLN3mcHFEdt0U46-371" value="2" style="shape=partialRectangle;html=1;whiteSpace=wrap;connectable=0;fillColor=none;top=0;left=0;bottom=0;right=0;overflow=hidden;pointerEvents=1;strokeColor=inherit;fontSize=16;fontColor=#000000;" parent="9oPECJLN3mcHFEdt0U46-370" vertex="1">
          <mxGeometry width="40" height="30" as="geometry">
            <mxRectangle width="40" height="30" as="alternateBounds" />
          </mxGeometry>
        </mxCell>
        <mxCell id="9oPECJLN3mcHFEdt0U46-372" value="페이징 처리" style="shape=partialRectangle;html=1;whiteSpace=wrap;connectable=0;fillColor=none;top=0;left=0;bottom=0;right=0;align=left;spacingLeft=6;overflow=hidden;strokeColor=inherit;fontSize=15;fontColor=#000000;" parent="9oPECJLN3mcHFEdt0U46-370" vertex="1">
          <mxGeometry x="40" width="230" height="30" as="geometry">
            <mxRectangle width="230" height="30" as="alternateBounds" />
          </mxGeometry>
        </mxCell>
        <mxCell id="9oPECJLN3mcHFEdt0U46-373" value="" style="shape=tableRow;horizontal=0;startSize=0;swimlaneHead=0;swimlaneBody=0;top=0;left=0;bottom=0;right=0;collapsible=0;dropTarget=0;fillColor=none;points=[[0,0.5],[1,0.5]];portConstraint=eastwest;strokeColor=inherit;fontSize=16;fontColor=#FFFFFF;" parent="9oPECJLN3mcHFEdt0U46-61" vertex="1">
          <mxGeometry y="90" width="270" height="30" as="geometry" />
        </mxCell>
        <mxCell id="9oPECJLN3mcHFEdt0U46-374" value="3" style="shape=partialRectangle;html=1;whiteSpace=wrap;connectable=0;fillColor=none;top=0;left=0;bottom=0;right=0;overflow=hidden;pointerEvents=1;strokeColor=inherit;fontSize=16;fontColor=#000000;" parent="9oPECJLN3mcHFEdt0U46-373" vertex="1">
          <mxGeometry width="40" height="30" as="geometry">
            <mxRectangle width="40" height="30" as="alternateBounds" />
          </mxGeometry>
        </mxCell>
        <mxCell id="9oPECJLN3mcHFEdt0U46-375" value="등록 페이지로 이동" style="shape=partialRectangle;html=1;whiteSpace=wrap;connectable=0;fillColor=none;top=0;left=0;bottom=0;right=0;align=left;spacingLeft=6;overflow=hidden;strokeColor=inherit;fontSize=15;fontColor=#000000;" parent="9oPECJLN3mcHFEdt0U46-373" vertex="1">
          <mxGeometry x="40" width="230" height="30" as="geometry">
            <mxRectangle width="230" height="30" as="alternateBounds" />
          </mxGeometry>
        </mxCell>
        <mxCell id="9oPECJLN3mcHFEdt0U46-65" value="" style="line;strokeWidth=1;html=1;rounded=0;shadow=0;labelBackgroundColor=none;fillColor=none;fontFamily=Verdana;fontSize=14;fontColor=#000000;align=center;comic=1;" parent="1" vertex="1">
          <mxGeometry x="220" y="1680" width="740" height="10" as="geometry" />
        </mxCell>
        <mxCell id="9oPECJLN3mcHFEdt0U46-66" value="로그인" style="text;html=1;strokeColor=none;fillColor=none;align=center;verticalAlign=middle;whiteSpace=wrap;rounded=0;fontColor=#000000;" parent="1" vertex="1">
          <mxGeometry x="870" y="1710" width="60" height="30" as="geometry" />
        </mxCell>
        <mxCell id="9oPECJLN3mcHFEdt0U46-67" value="FOOTER" style="text;html=1;strokeColor=none;fillColor=none;align=center;verticalAlign=middle;whiteSpace=wrap;rounded=0;fontColor=#000000;" parent="1" vertex="1">
          <mxGeometry x="240" y="1710" width="60" height="30" as="geometry" />
        </mxCell>
        <mxCell id="9oPECJLN3mcHFEdt0U46-70" value="&lt;font style=&quot;font-size: 30px;&quot;&gt;&lt;b&gt;교회 소식&lt;/b&gt;&lt;/font&gt;" style="text;html=1;strokeColor=none;fillColor=none;align=center;verticalAlign=middle;whiteSpace=wrap;rounded=0;" parent="1" vertex="1">
          <mxGeometry x="485" y="1110" width="210" height="30" as="geometry" />
        </mxCell>
        <mxCell id="9oPECJLN3mcHFEdt0U46-71" value="&lt;&lt; Prev 1 2 3 4 5 6 7 8 9 10 Next &gt;&gt;" style="strokeWidth=1;shadow=0;dashed=0;align=center;html=1;shape=mxgraph.mockup.navigation.pagination;linkText=;fontSize=17;fontColor=#0000ff;fontStyle=4;" parent="1" vertex="1">
          <mxGeometry x="400" y="1590" width="350" height="30" as="geometry" />
        </mxCell>
        <mxCell id="9oPECJLN3mcHFEdt0U46-221" value="&lt;font color=&quot;#ffffff&quot;&gt;1&lt;/font&gt;" style="ellipse;whiteSpace=wrap;html=1;aspect=fixed;fillColor=#F83232;strokeColor=#b85450;" parent="1" vertex="1">
          <mxGeometry x="550" y="1210" width="20" height="20" as="geometry" />
        </mxCell>
        <mxCell id="9oPECJLN3mcHFEdt0U46-239" value="&lt;font color=&quot;#ffffff&quot;&gt;3&lt;/font&gt;" style="ellipse;whiteSpace=wrap;html=1;aspect=fixed;fillColor=#F83232;strokeColor=#b85450;" parent="1" vertex="1">
          <mxGeometry x="900" y="1590" width="20" height="20" as="geometry" />
        </mxCell>
        <mxCell id="9oPECJLN3mcHFEdt0U46-241" value="제목" style="text;html=1;points=[];align=left;verticalAlign=top;spacingTop=-4;fontSize=14;fontFamily=Verdana" parent="1" vertex="1">
          <mxGeometry x="290" y="1170" width="60" height="20" as="geometry" />
        </mxCell>
        <mxCell id="9oPECJLN3mcHFEdt0U46-242" value="등록일자" style="text;html=1;points=[];align=left;verticalAlign=top;spacingTop=-4;fontSize=14;fontFamily=Verdana" parent="1" vertex="1">
          <mxGeometry x="800" y="1170" width="60" height="20" as="geometry" />
        </mxCell>
        <mxCell id="9oPECJLN3mcHFEdt0U46-244" value="2023년 02월 05일 - 빌립보서 4장 10-23절" style="text;html=1;points=[];align=left;verticalAlign=top;spacingTop=-4;fontSize=14;fontFamily=Verdana" parent="1" vertex="1">
          <mxGeometry x="270" y="1220" width="60" height="20" as="geometry" />
        </mxCell>
        <mxCell id="9oPECJLN3mcHFEdt0U46-245" value="2023년 01월 29일 - 사무엘상 17장 17-49절" style="text;html=1;points=[];align=left;verticalAlign=top;spacingTop=-4;fontSize=14;fontFamily=Verdana" parent="1" vertex="1">
          <mxGeometry x="270" y="1260" width="60" height="20" as="geometry" />
        </mxCell>
        <mxCell id="9oPECJLN3mcHFEdt0U46-246" value="2023.02.14" style="text;html=1;points=[];align=left;verticalAlign=top;spacingTop=-4;fontSize=14;fontFamily=Verdana" parent="1" vertex="1">
          <mxGeometry x="790" y="1220" width="60" height="20" as="geometry" />
        </mxCell>
        <mxCell id="9oPECJLN3mcHFEdt0U46-247" value="2023.02.14" style="text;html=1;points=[];align=left;verticalAlign=top;spacingTop=-4;fontSize=14;fontFamily=Verdana" parent="1" vertex="1">
          <mxGeometry x="790" y="1260" width="60" height="20" as="geometry" />
        </mxCell>
        <mxCell id="9oPECJLN3mcHFEdt0U46-248" value="2023년 01월 22일 - 빌립보서 4장 1~9절" style="text;html=1;points=[];align=left;verticalAlign=top;spacingTop=-4;fontSize=14;fontFamily=Verdana" parent="1" vertex="1">
          <mxGeometry x="270" y="1300" width="60" height="20" as="geometry" />
        </mxCell>
        <mxCell id="9oPECJLN3mcHFEdt0U46-249" value="2023.02.14" style="text;html=1;points=[];align=left;verticalAlign=top;spacingTop=-4;fontSize=14;fontFamily=Verdana" parent="1" vertex="1">
          <mxGeometry x="790" y="1300" width="60" height="20" as="geometry" />
        </mxCell>
        <mxCell id="9oPECJLN3mcHFEdt0U46-250" value="2023년 01월 22일 - 빌립보서 4장 1~9절" style="text;html=1;points=[];align=left;verticalAlign=top;spacingTop=-4;fontSize=14;fontFamily=Verdana" parent="1" vertex="1">
          <mxGeometry x="270" y="1340" width="60" height="20" as="geometry" />
        </mxCell>
        <mxCell id="9oPECJLN3mcHFEdt0U46-251" value="2023년 01월 22일 - 빌립보서 4장 1~9절" style="text;html=1;points=[];align=left;verticalAlign=top;spacingTop=-4;fontSize=14;fontFamily=Verdana" parent="1" vertex="1">
          <mxGeometry x="270" y="1380" width="60" height="20" as="geometry" />
        </mxCell>
        <mxCell id="9oPECJLN3mcHFEdt0U46-252" value="2023.02.14" style="text;html=1;points=[];align=left;verticalAlign=top;spacingTop=-4;fontSize=14;fontFamily=Verdana" parent="1" vertex="1">
          <mxGeometry x="790" y="1340" width="60" height="20" as="geometry" />
        </mxCell>
        <mxCell id="9oPECJLN3mcHFEdt0U46-253" value="2023.02.14" style="text;html=1;points=[];align=left;verticalAlign=top;spacingTop=-4;fontSize=14;fontFamily=Verdana" parent="1" vertex="1">
          <mxGeometry x="790" y="1380" width="60" height="20" as="geometry" />
        </mxCell>
        <mxCell id="9oPECJLN3mcHFEdt0U46-261" value="2023년 01월 22일 - 빌립보서 4장 1~9절" style="text;html=1;points=[];align=left;verticalAlign=top;spacingTop=-4;fontSize=14;fontFamily=Verdana" parent="1" vertex="1">
          <mxGeometry x="270" y="1420" width="60" height="20" as="geometry" />
        </mxCell>
        <mxCell id="9oPECJLN3mcHFEdt0U46-262" value="2023년 01월 22일 - 빌립보서 4장 1~9절" style="text;html=1;points=[];align=left;verticalAlign=top;spacingTop=-4;fontSize=14;fontFamily=Verdana" parent="1" vertex="1">
          <mxGeometry x="270" y="1460" width="60" height="20" as="geometry" />
        </mxCell>
        <mxCell id="9oPECJLN3mcHFEdt0U46-263" value="2023년 01월 22일 - 빌립보서 4장 1~9절" style="text;html=1;points=[];align=left;verticalAlign=top;spacingTop=-4;fontSize=14;fontFamily=Verdana" parent="1" vertex="1">
          <mxGeometry x="270" y="1500" width="60" height="20" as="geometry" />
        </mxCell>
        <mxCell id="9oPECJLN3mcHFEdt0U46-264" value="2023년 01월 22일 - 빌립보서 4장 1~9절" style="text;html=1;points=[];align=left;verticalAlign=top;spacingTop=-4;fontSize=14;fontFamily=Verdana" parent="1" vertex="1">
          <mxGeometry x="270" y="1540" width="60" height="20" as="geometry" />
        </mxCell>
        <mxCell id="9oPECJLN3mcHFEdt0U46-265" value="2023.02.14" style="text;html=1;points=[];align=left;verticalAlign=top;spacingTop=-4;fontSize=14;fontFamily=Verdana" parent="1" vertex="1">
          <mxGeometry x="790" y="1420" width="60" height="20" as="geometry" />
        </mxCell>
        <mxCell id="9oPECJLN3mcHFEdt0U46-266" value="2023.02.14" style="text;html=1;points=[];align=left;verticalAlign=top;spacingTop=-4;fontSize=14;fontFamily=Verdana" parent="1" vertex="1">
          <mxGeometry x="790" y="1460" width="60" height="20" as="geometry" />
        </mxCell>
        <mxCell id="9oPECJLN3mcHFEdt0U46-267" value="2023.02.14" style="text;html=1;points=[];align=left;verticalAlign=top;spacingTop=-4;fontSize=14;fontFamily=Verdana" parent="1" vertex="1">
          <mxGeometry x="790" y="1500" width="60" height="20" as="geometry" />
        </mxCell>
        <mxCell id="9oPECJLN3mcHFEdt0U46-268" value="2023.02.14" style="text;html=1;points=[];align=left;verticalAlign=top;spacingTop=-4;fontSize=14;fontFamily=Verdana" parent="1" vertex="1">
          <mxGeometry x="790" y="1540" width="60" height="20" as="geometry" />
        </mxCell>
        <mxCell id="9oPECJLN3mcHFEdt0U46-269" value="&lt;font style=&quot;font-size: 14px;&quot;&gt;글 올리기&lt;/font&gt;" style="rounded=0;whiteSpace=wrap;html=1;fontSize=18;" parent="1" vertex="1">
          <mxGeometry x="820" y="1595" width="80" height="20" as="geometry" />
        </mxCell>
        <mxCell id="9oPECJLN3mcHFEdt0U46-271" value="설교자" style="text;html=1;points=[];align=left;verticalAlign=top;spacingTop=-4;fontSize=14;fontFamily=Verdana" parent="1" vertex="1">
          <mxGeometry x="660" y="1170" width="60" height="20" as="geometry" />
        </mxCell>
        <mxCell id="9oPECJLN3mcHFEdt0U46-272" value="홍길동 목사" style="text;html=1;points=[];align=left;verticalAlign=top;spacingTop=-4;fontSize=14;fontFamily=Verdana" parent="1" vertex="1">
          <mxGeometry x="650" y="1220" width="60" height="20" as="geometry" />
        </mxCell>
        <mxCell id="9oPECJLN3mcHFEdt0U46-273" value="홍길동 목사" style="text;html=1;points=[];align=left;verticalAlign=top;spacingTop=-4;fontSize=14;fontFamily=Verdana" parent="1" vertex="1">
          <mxGeometry x="650" y="1260" width="60" height="20" as="geometry" />
        </mxCell>
        <mxCell id="9oPECJLN3mcHFEdt0U46-274" value="홍길동 목사" style="text;html=1;points=[];align=left;verticalAlign=top;spacingTop=-4;fontSize=14;fontFamily=Verdana" parent="1" vertex="1">
          <mxGeometry x="650" y="1300" width="60" height="20" as="geometry" />
        </mxCell>
        <mxCell id="9oPECJLN3mcHFEdt0U46-275" value="홍길동 목사" style="text;html=1;points=[];align=left;verticalAlign=top;spacingTop=-4;fontSize=14;fontFamily=Verdana" parent="1" vertex="1">
          <mxGeometry x="650" y="1340" width="60" height="20" as="geometry" />
        </mxCell>
        <mxCell id="9oPECJLN3mcHFEdt0U46-276" value="홍길동 목사" style="text;html=1;points=[];align=left;verticalAlign=top;spacingTop=-4;fontSize=14;fontFamily=Verdana" parent="1" vertex="1">
          <mxGeometry x="650" y="1380" width="60" height="20" as="geometry" />
        </mxCell>
        <mxCell id="9oPECJLN3mcHFEdt0U46-277" value="홍길동 목사" style="text;html=1;points=[];align=left;verticalAlign=top;spacingTop=-4;fontSize=14;fontFamily=Verdana" parent="1" vertex="1">
          <mxGeometry x="650" y="1420" width="60" height="20" as="geometry" />
        </mxCell>
        <mxCell id="9oPECJLN3mcHFEdt0U46-278" value="홍길동 목사" style="text;html=1;points=[];align=left;verticalAlign=top;spacingTop=-4;fontSize=14;fontFamily=Verdana" parent="1" vertex="1">
          <mxGeometry x="650" y="1460" width="60" height="20" as="geometry" />
        </mxCell>
        <mxCell id="9oPECJLN3mcHFEdt0U46-279" value="홍길동 목사" style="text;html=1;points=[];align=left;verticalAlign=top;spacingTop=-4;fontSize=14;fontFamily=Verdana" parent="1" vertex="1">
          <mxGeometry x="650" y="1500" width="60" height="20" as="geometry" />
        </mxCell>
        <mxCell id="9oPECJLN3mcHFEdt0U46-280" value="홍길동 목사" style="text;html=1;points=[];align=left;verticalAlign=top;spacingTop=-4;fontSize=14;fontFamily=Verdana" parent="1" vertex="1">
          <mxGeometry x="650" y="1540" width="60" height="20" as="geometry" />
        </mxCell>
        <mxCell id="9oPECJLN3mcHFEdt0U46-281" value="LOGO" style="whiteSpace=wrap;html=1;rounded=0;shadow=0;labelBackgroundColor=none;strokeWidth=1;fontFamily=Verdana;fontSize=28;align=center;comic=1;" parent="1" vertex="1">
          <mxGeometry x="1355" y="975" width="190" height="50" as="geometry" />
        </mxCell>
        <mxCell id="9oPECJLN3mcHFEdt0U46-282" value="교회 소개" style="text;html=1;points=[];align=left;verticalAlign=top;spacingTop=-4;fontSize=14;fontFamily=Verdana" parent="1" vertex="1">
          <mxGeometry x="1605" y="990" width="60" height="20" as="geometry" />
        </mxCell>
        <mxCell id="9oPECJLN3mcHFEdt0U46-283" value="예배와 말씀" style="text;html=1;points=[];align=left;verticalAlign=top;spacingTop=-4;fontSize=14;fontFamily=Verdana" parent="1" vertex="1">
          <mxGeometry x="1705" y="990" width="60" height="20" as="geometry" />
        </mxCell>
        <mxCell id="9oPECJLN3mcHFEdt0U46-284" value="양육과 교육" style="text;html=1;points=[];align=left;verticalAlign=top;spacingTop=-4;fontSize=14;fontFamily=Verdana" parent="1" vertex="1">
          <mxGeometry x="1805" y="990" width="60" height="20" as="geometry" />
        </mxCell>
        <mxCell id="9oPECJLN3mcHFEdt0U46-285" value="돌봄과 선교" style="text;html=1;points=[];align=left;verticalAlign=top;spacingTop=-4;fontSize=14;fontFamily=Verdana" parent="1" vertex="1">
          <mxGeometry x="1905" y="990" width="60" height="20" as="geometry" />
        </mxCell>
        <mxCell id="9oPECJLN3mcHFEdt0U46-286" value="" style="line;strokeWidth=1;html=1;rounded=0;shadow=0;labelBackgroundColor=none;fillColor=none;fontFamily=Verdana;fontSize=14;fontColor=#000000;align=center;comic=1;" parent="1" vertex="1">
          <mxGeometry x="1335" y="1055" width="740" height="10" as="geometry" />
        </mxCell>
        <mxCell id="9oPECJLN3mcHFEdt0U46-287" value="화면 설명" style="shape=table;startSize=30;container=1;collapsible=0;childLayout=tableLayout;fixedRows=1;rowLines=0;fontStyle=0;strokeColor=default;fontSize=16;fontColor=#000000;fillColor=#CCCCCC;" parent="1" vertex="1">
          <mxGeometry x="2120" y="940" width="270" height="160" as="geometry" />
        </mxCell>
        <mxCell id="9oPECJLN3mcHFEdt0U46-288" value="" style="shape=tableRow;horizontal=0;startSize=0;swimlaneHead=0;swimlaneBody=0;top=0;left=0;bottom=0;right=0;collapsible=0;dropTarget=0;fillColor=none;points=[[0,0.5],[1,0.5]];portConstraint=eastwest;strokeColor=inherit;fontSize=16;fontColor=#FFFFFF;" parent="9oPECJLN3mcHFEdt0U46-287" vertex="1">
          <mxGeometry y="30" width="270" height="40" as="geometry" />
        </mxCell>
        <mxCell id="9oPECJLN3mcHFEdt0U46-289" value="1" style="shape=partialRectangle;html=1;whiteSpace=wrap;connectable=0;fillColor=none;top=0;left=0;bottom=0;right=0;overflow=hidden;pointerEvents=1;strokeColor=inherit;fontSize=16;fontColor=#000000;" parent="9oPECJLN3mcHFEdt0U46-288" vertex="1">
          <mxGeometry width="40" height="40" as="geometry">
            <mxRectangle width="40" height="40" as="alternateBounds" />
          </mxGeometry>
        </mxCell>
        <mxCell id="9oPECJLN3mcHFEdt0U46-290" value="이전 혹은 다음 소식, 없으면 안보이도록" style="shape=partialRectangle;html=1;whiteSpace=wrap;connectable=0;fillColor=none;top=0;left=0;bottom=0;right=0;align=left;spacingLeft=6;overflow=hidden;strokeColor=inherit;fontSize=15;fontColor=#000000;" parent="9oPECJLN3mcHFEdt0U46-288" vertex="1">
          <mxGeometry x="40" width="230" height="40" as="geometry">
            <mxRectangle width="230" height="40" as="alternateBounds" />
          </mxGeometry>
        </mxCell>
        <mxCell id="9oPECJLN3mcHFEdt0U46-387" value="" style="shape=tableRow;horizontal=0;startSize=0;swimlaneHead=0;swimlaneBody=0;top=0;left=0;bottom=0;right=0;collapsible=0;dropTarget=0;fillColor=none;points=[[0,0.5],[1,0.5]];portConstraint=eastwest;strokeColor=inherit;fontSize=16;fontColor=#FFFFFF;" parent="9oPECJLN3mcHFEdt0U46-287" vertex="1">
          <mxGeometry y="70" width="270" height="30" as="geometry" />
        </mxCell>
        <mxCell id="9oPECJLN3mcHFEdt0U46-388" value="2" style="shape=partialRectangle;html=1;whiteSpace=wrap;connectable=0;fillColor=none;top=0;left=0;bottom=0;right=0;overflow=hidden;pointerEvents=1;strokeColor=inherit;fontSize=16;fontColor=#000000;" parent="9oPECJLN3mcHFEdt0U46-387" vertex="1">
          <mxGeometry width="40" height="30" as="geometry">
            <mxRectangle width="40" height="30" as="alternateBounds" />
          </mxGeometry>
        </mxCell>
        <mxCell id="9oPECJLN3mcHFEdt0U46-389" value="목록 페이지로" style="shape=partialRectangle;html=1;whiteSpace=wrap;connectable=0;fillColor=none;top=0;left=0;bottom=0;right=0;align=left;spacingLeft=6;overflow=hidden;strokeColor=inherit;fontSize=15;fontColor=#000000;" parent="9oPECJLN3mcHFEdt0U46-387" vertex="1">
          <mxGeometry x="40" width="230" height="30" as="geometry">
            <mxRectangle width="230" height="30" as="alternateBounds" />
          </mxGeometry>
        </mxCell>
        <mxCell id="9oPECJLN3mcHFEdt0U46-489" value="" style="shape=tableRow;horizontal=0;startSize=0;swimlaneHead=0;swimlaneBody=0;top=0;left=0;bottom=0;right=0;collapsible=0;dropTarget=0;fillColor=none;points=[[0,0.5],[1,0.5]];portConstraint=eastwest;strokeColor=inherit;fontSize=16;fontColor=#FFFFFF;" parent="9oPECJLN3mcHFEdt0U46-287" vertex="1">
          <mxGeometry y="100" width="270" height="30" as="geometry" />
        </mxCell>
        <mxCell id="9oPECJLN3mcHFEdt0U46-490" value="3" style="shape=partialRectangle;html=1;whiteSpace=wrap;connectable=0;fillColor=none;top=0;left=0;bottom=0;right=0;overflow=hidden;pointerEvents=1;strokeColor=inherit;fontSize=16;fontColor=#000000;" parent="9oPECJLN3mcHFEdt0U46-489" vertex="1">
          <mxGeometry width="40" height="30" as="geometry">
            <mxRectangle width="40" height="30" as="alternateBounds" />
          </mxGeometry>
        </mxCell>
        <mxCell id="9oPECJLN3mcHFEdt0U46-491" value="수정 페이지로 이동" style="shape=partialRectangle;html=1;whiteSpace=wrap;connectable=0;fillColor=none;top=0;left=0;bottom=0;right=0;align=left;spacingLeft=6;overflow=hidden;strokeColor=inherit;fontSize=15;fontColor=#000000;" parent="9oPECJLN3mcHFEdt0U46-489" vertex="1">
          <mxGeometry x="40" width="230" height="30" as="geometry">
            <mxRectangle width="230" height="30" as="alternateBounds" />
          </mxGeometry>
        </mxCell>
        <mxCell id="9oPECJLN3mcHFEdt0U46-492" value="" style="shape=tableRow;horizontal=0;startSize=0;swimlaneHead=0;swimlaneBody=0;top=0;left=0;bottom=0;right=0;collapsible=0;dropTarget=0;fillColor=none;points=[[0,0.5],[1,0.5]];portConstraint=eastwest;strokeColor=inherit;fontSize=16;fontColor=#FFFFFF;" parent="9oPECJLN3mcHFEdt0U46-287" vertex="1">
          <mxGeometry y="130" width="270" height="30" as="geometry" />
        </mxCell>
        <mxCell id="9oPECJLN3mcHFEdt0U46-493" value="4" style="shape=partialRectangle;html=1;whiteSpace=wrap;connectable=0;fillColor=none;top=0;left=0;bottom=0;right=0;overflow=hidden;pointerEvents=1;strokeColor=inherit;fontSize=16;fontColor=#000000;" parent="9oPECJLN3mcHFEdt0U46-492" vertex="1">
          <mxGeometry width="40" height="30" as="geometry">
            <mxRectangle width="40" height="30" as="alternateBounds" />
          </mxGeometry>
        </mxCell>
        <mxCell id="9oPECJLN3mcHFEdt0U46-494" value="삭제 페이지로 이동" style="shape=partialRectangle;html=1;whiteSpace=wrap;connectable=0;fillColor=none;top=0;left=0;bottom=0;right=0;align=left;spacingLeft=6;overflow=hidden;strokeColor=inherit;fontSize=15;fontColor=#000000;" parent="9oPECJLN3mcHFEdt0U46-492" vertex="1">
          <mxGeometry x="40" width="230" height="30" as="geometry">
            <mxRectangle width="230" height="30" as="alternateBounds" />
          </mxGeometry>
        </mxCell>
        <mxCell id="9oPECJLN3mcHFEdt0U46-291" value="" style="line;strokeWidth=1;html=1;rounded=0;shadow=0;labelBackgroundColor=none;fillColor=none;fontFamily=Verdana;fontSize=14;fontColor=#000000;align=center;comic=1;" parent="1" vertex="1">
          <mxGeometry x="1335" y="1665" width="740" height="10" as="geometry" />
        </mxCell>
        <mxCell id="9oPECJLN3mcHFEdt0U46-292" value="로그인" style="text;html=1;strokeColor=none;fillColor=none;align=center;verticalAlign=middle;whiteSpace=wrap;rounded=0;fontColor=#000000;" parent="1" vertex="1">
          <mxGeometry x="1985" y="1695" width="60" height="30" as="geometry" />
        </mxCell>
        <mxCell id="9oPECJLN3mcHFEdt0U46-293" value="FOOTER" style="text;html=1;strokeColor=none;fillColor=none;align=center;verticalAlign=middle;whiteSpace=wrap;rounded=0;fontColor=#000000;" parent="1" vertex="1">
          <mxGeometry x="1355" y="1695" width="60" height="30" as="geometry" />
        </mxCell>
        <mxCell id="9oPECJLN3mcHFEdt0U46-294" value="&lt;font style=&quot;font-size: 30px;&quot;&gt;&lt;b&gt;교회 소식&lt;/b&gt;&lt;/font&gt;" style="text;html=1;strokeColor=none;fillColor=none;align=center;verticalAlign=middle;whiteSpace=wrap;rounded=0;" parent="1" vertex="1">
          <mxGeometry x="1600" y="1095" width="210" height="30" as="geometry" />
        </mxCell>
        <mxCell id="9oPECJLN3mcHFEdt0U46-299" value="등록일자" style="text;html=1;points=[];align=left;verticalAlign=top;spacingTop=-4;fontSize=14;fontFamily=Verdana" parent="1" vertex="1">
          <mxGeometry x="1392.5" y="1215" width="60" height="20" as="geometry" />
        </mxCell>
        <mxCell id="9oPECJLN3mcHFEdt0U46-319" value="등록한 사람" style="text;html=1;points=[];align=left;verticalAlign=top;spacingTop=-4;fontSize=14;fontFamily=Verdana" parent="1" vertex="1">
          <mxGeometry x="1925" y="1215" width="60" height="20" as="geometry" />
        </mxCell>
        <mxCell id="9oPECJLN3mcHFEdt0U46-330" value="&lt;font color=&quot;#ffffff&quot;&gt;2&lt;/font&gt;" style="ellipse;whiteSpace=wrap;html=1;aspect=fixed;fillColor=#F83232;strokeColor=#b85450;" parent="1" vertex="1">
          <mxGeometry x="430" y="1580" width="20" height="20" as="geometry" />
        </mxCell>
        <mxCell id="9oPECJLN3mcHFEdt0U46-332" value="content" style="rounded=0;whiteSpace=wrap;html=1;fontSize=16;" parent="1" vertex="1">
          <mxGeometry x="1392.5" y="1255" width="615" height="260" as="geometry" />
        </mxCell>
        <mxCell id="9oPECJLN3mcHFEdt0U46-335" value="다음 &amp;gt;&amp;gt;" style="text;html=1;strokeColor=none;fillColor=none;align=center;verticalAlign=middle;whiteSpace=wrap;rounded=0;fontSize=16;" parent="1" vertex="1">
          <mxGeometry x="1947.5" y="1595" width="60" height="30" as="geometry" />
        </mxCell>
        <mxCell id="9oPECJLN3mcHFEdt0U46-336" value="&amp;lt;&amp;lt; 이전" style="text;html=1;strokeColor=none;fillColor=none;align=center;verticalAlign=middle;whiteSpace=wrap;rounded=0;fontSize=16;" parent="1" vertex="1">
          <mxGeometry x="1375" y="1595" width="60" height="30" as="geometry" />
        </mxCell>
        <mxCell id="9oPECJLN3mcHFEdt0U46-337" value="목록으로" style="text;html=1;strokeColor=none;fillColor=none;align=center;verticalAlign=middle;whiteSpace=wrap;rounded=0;fontSize=16;" parent="1" vertex="1">
          <mxGeometry x="1655" y="1595" width="90" height="30" as="geometry" />
        </mxCell>
        <mxCell id="9oPECJLN3mcHFEdt0U46-385" value="&lt;font color=&quot;#ffffff&quot;&gt;1&lt;/font&gt;" style="ellipse;whiteSpace=wrap;html=1;aspect=fixed;fillColor=#F83232;strokeColor=#b85450;" parent="1" vertex="1">
          <mxGeometry x="1425" y="1585" width="20" height="20" as="geometry" />
        </mxCell>
        <mxCell id="9oPECJLN3mcHFEdt0U46-386" value="&lt;font color=&quot;#ffffff&quot;&gt;1&lt;/font&gt;" style="ellipse;whiteSpace=wrap;html=1;aspect=fixed;fillColor=#F83232;strokeColor=#b85450;" parent="1" vertex="1">
          <mxGeometry x="1995" y="1585" width="20" height="20" as="geometry" />
        </mxCell>
        <mxCell id="9oPECJLN3mcHFEdt0U46-393" value="&lt;font color=&quot;#ffffff&quot;&gt;2&lt;/font&gt;" style="ellipse;whiteSpace=wrap;html=1;aspect=fixed;fillColor=#F83232;strokeColor=#b85450;" parent="1" vertex="1">
          <mxGeometry x="1655" y="1585" width="20" height="20" as="geometry" />
        </mxCell>
        <mxCell id="9oPECJLN3mcHFEdt0U46-394" value="Search" style="strokeWidth=1;shadow=0;dashed=0;align=center;html=1;shape=mxgraph.mockup.forms.searchBox;strokeColor=#999999;mainText=;strokeColor2=#008cff;fontColor=#666666;fontSize=17;align=left;spacingLeft=3;" parent="1" vertex="1">
          <mxGeometry x="760" y="1110" width="150" height="30" as="geometry" />
        </mxCell>
        <mxCell id="9oPECJLN3mcHFEdt0U46-449" value="제목" style="rounded=1;whiteSpace=wrap;html=1;fontSize=16;" parent="1" vertex="1">
          <mxGeometry x="1395" y="1165" width="610" height="40" as="geometry" />
        </mxCell>
        <mxCell id="9oPECJLN3mcHFEdt0U46-450" value="조회수" style="text;html=1;points=[];align=left;verticalAlign=top;spacingTop=-4;fontSize=14;fontFamily=Verdana" parent="1" vertex="1">
          <mxGeometry x="1455" y="1215" width="60" height="20" as="geometry" />
        </mxCell>
        <mxCell id="9oPECJLN3mcHFEdt0U46-453" value="LOGO" style="whiteSpace=wrap;html=1;rounded=0;shadow=0;labelBackgroundColor=none;strokeWidth=1;fontFamily=Verdana;fontSize=28;align=center;comic=1;" parent="1" vertex="1">
          <mxGeometry x="246.25" y="1910" width="190" height="50" as="geometry" />
        </mxCell>
        <mxCell id="9oPECJLN3mcHFEdt0U46-454" value="교회 소개" style="text;html=1;points=[];align=left;verticalAlign=top;spacingTop=-4;fontSize=14;fontFamily=Verdana" parent="1" vertex="1">
          <mxGeometry x="496.25" y="1925" width="60" height="20" as="geometry" />
        </mxCell>
        <mxCell id="9oPECJLN3mcHFEdt0U46-455" value="예배와 말씀" style="text;html=1;points=[];align=left;verticalAlign=top;spacingTop=-4;fontSize=14;fontFamily=Verdana" parent="1" vertex="1">
          <mxGeometry x="596.25" y="1925" width="60" height="20" as="geometry" />
        </mxCell>
        <mxCell id="9oPECJLN3mcHFEdt0U46-456" value="양육과 교육" style="text;html=1;points=[];align=left;verticalAlign=top;spacingTop=-4;fontSize=14;fontFamily=Verdana" parent="1" vertex="1">
          <mxGeometry x="696.25" y="1925" width="60" height="20" as="geometry" />
        </mxCell>
        <mxCell id="9oPECJLN3mcHFEdt0U46-457" value="돌봄과 선교" style="text;html=1;points=[];align=left;verticalAlign=top;spacingTop=-4;fontSize=14;fontFamily=Verdana" parent="1" vertex="1">
          <mxGeometry x="796.25" y="1925" width="60" height="20" as="geometry" />
        </mxCell>
        <mxCell id="9oPECJLN3mcHFEdt0U46-458" value="" style="line;strokeWidth=1;html=1;rounded=0;shadow=0;labelBackgroundColor=none;fillColor=none;fontFamily=Verdana;fontSize=14;fontColor=#000000;align=center;comic=1;" parent="1" vertex="1">
          <mxGeometry x="226.25" y="1990" width="740" height="10" as="geometry" />
        </mxCell>
        <mxCell id="9oPECJLN3mcHFEdt0U46-459" value="화면 설명" style="shape=table;startSize=30;container=1;collapsible=0;childLayout=tableLayout;fixedRows=1;rowLines=0;fontStyle=0;strokeColor=default;fontSize=16;fontColor=#000000;fillColor=#CCCCCC;" parent="1" vertex="1">
          <mxGeometry x="1006.25" y="1910" width="270" height="70" as="geometry" />
        </mxCell>
        <mxCell id="9oPECJLN3mcHFEdt0U46-460" value="" style="shape=tableRow;horizontal=0;startSize=0;swimlaneHead=0;swimlaneBody=0;top=0;left=0;bottom=0;right=0;collapsible=0;dropTarget=0;fillColor=none;points=[[0,0.5],[1,0.5]];portConstraint=eastwest;strokeColor=inherit;fontSize=16;fontColor=#FFFFFF;" parent="9oPECJLN3mcHFEdt0U46-459" vertex="1">
          <mxGeometry y="30" width="270" height="40" as="geometry" />
        </mxCell>
        <mxCell id="9oPECJLN3mcHFEdt0U46-461" value="1" style="shape=partialRectangle;html=1;whiteSpace=wrap;connectable=0;fillColor=none;top=0;left=0;bottom=0;right=0;overflow=hidden;pointerEvents=1;strokeColor=inherit;fontSize=16;fontColor=#000000;" parent="9oPECJLN3mcHFEdt0U46-460" vertex="1">
          <mxGeometry width="40" height="40" as="geometry">
            <mxRectangle width="40" height="40" as="alternateBounds" />
          </mxGeometry>
        </mxCell>
        <mxCell id="9oPECJLN3mcHFEdt0U46-462" value="등록 및 수정에 공통 사용" style="shape=partialRectangle;html=1;whiteSpace=wrap;connectable=0;fillColor=none;top=0;left=0;bottom=0;right=0;align=left;spacingLeft=6;overflow=hidden;strokeColor=inherit;fontSize=15;fontColor=#000000;" parent="9oPECJLN3mcHFEdt0U46-460" vertex="1">
          <mxGeometry x="40" width="230" height="40" as="geometry">
            <mxRectangle width="230" height="40" as="alternateBounds" />
          </mxGeometry>
        </mxCell>
        <mxCell id="9oPECJLN3mcHFEdt0U46-466" value="" style="line;strokeWidth=1;html=1;rounded=0;shadow=0;labelBackgroundColor=none;fillColor=none;fontFamily=Verdana;fontSize=14;fontColor=#000000;align=center;comic=1;" parent="1" vertex="1">
          <mxGeometry x="226.25" y="2600" width="740" height="10" as="geometry" />
        </mxCell>
        <mxCell id="9oPECJLN3mcHFEdt0U46-467" value="로그인" style="text;html=1;strokeColor=none;fillColor=none;align=center;verticalAlign=middle;whiteSpace=wrap;rounded=0;fontColor=#000000;" parent="1" vertex="1">
          <mxGeometry x="876.25" y="2630" width="60" height="30" as="geometry" />
        </mxCell>
        <mxCell id="9oPECJLN3mcHFEdt0U46-468" value="FOOTER" style="text;html=1;strokeColor=none;fillColor=none;align=center;verticalAlign=middle;whiteSpace=wrap;rounded=0;fontColor=#000000;" parent="1" vertex="1">
          <mxGeometry x="246.25" y="2630" width="60" height="30" as="geometry" />
        </mxCell>
        <mxCell id="9oPECJLN3mcHFEdt0U46-472" value="SummerNote" style="rounded=0;whiteSpace=wrap;html=1;fontSize=16;" parent="1" vertex="1">
          <mxGeometry x="283.75" y="2115" width="615" height="395" as="geometry" />
        </mxCell>
        <mxCell id="9oPECJLN3mcHFEdt0U46-479" value="제목을 입력해주세요" style="rounded=1;whiteSpace=wrap;html=1;fontSize=16;" parent="1" vertex="1">
          <mxGeometry x="288.75" y="2045" width="610" height="40" as="geometry" />
        </mxCell>
        <mxCell id="9oPECJLN3mcHFEdt0U46-482" value="등록하기" style="rounded=1;whiteSpace=wrap;html=1;fontSize=16;" parent="1" vertex="1">
          <mxGeometry x="806.25" y="2540" width="95" height="40" as="geometry" />
        </mxCell>
        <mxCell id="9oPECJLN3mcHFEdt0U46-483" value="" style="whiteSpace=wrap;html=1;rounded=0;shadow=0;labelBackgroundColor=none;strokeColor=#000000;strokeWidth=1;fillColor=none;fontFamily=Verdana;fontSize=12;fontColor=#000000;align=center;comic=1;" parent="1" vertex="1">
          <mxGeometry x="226.25" y="1870" width="740" height="810" as="geometry" />
        </mxCell>
        <mxCell id="9oPECJLN3mcHFEdt0U46-484" value="삭제" style="rounded=1;whiteSpace=wrap;html=1;fontSize=16;" parent="1" vertex="1">
          <mxGeometry x="1907.5" y="1535" width="100" height="35" as="geometry" />
        </mxCell>
        <mxCell id="9oPECJLN3mcHFEdt0U46-485" value="수정" style="rounded=1;whiteSpace=wrap;html=1;fontSize=16;" parent="1" vertex="1">
          <mxGeometry x="1795" y="1535" width="100" height="35" as="geometry" />
        </mxCell>
        <mxCell id="9oPECJLN3mcHFEdt0U46-487" value="&lt;font color=&quot;#ffffff&quot;&gt;3&lt;/font&gt;" style="ellipse;whiteSpace=wrap;html=1;aspect=fixed;fillColor=#F83232;strokeColor=#b85450;" parent="1" vertex="1">
          <mxGeometry x="1790" y="1525" width="20" height="20" as="geometry" />
        </mxCell>
        <mxCell id="9oPECJLN3mcHFEdt0U46-488" value="&lt;font color=&quot;#ffffff&quot;&gt;4&lt;/font&gt;" style="ellipse;whiteSpace=wrap;html=1;aspect=fixed;fillColor=#F83232;strokeColor=#b85450;" parent="1" vertex="1">
          <mxGeometry x="1905" y="1525" width="20" height="20" as="geometry" />
        </mxCell>
        <mxCell id="9oPECJLN3mcHFEdt0U46-495" value="&lt;font color=&quot;#ffffff&quot;&gt;1&lt;/font&gt;" style="ellipse;whiteSpace=wrap;html=1;aspect=fixed;fillColor=#F83232;strokeColor=#b85450;" parent="1" vertex="1">
          <mxGeometry x="263.75" y="2020" width="20" height="20" as="geometry" />
        </mxCell>
        <mxCell id="9oPECJLN3mcHFEdt0U46-497" value="LOGO" style="whiteSpace=wrap;html=1;rounded=0;shadow=0;labelBackgroundColor=none;strokeWidth=1;fontFamily=Verdana;fontSize=28;align=center;comic=1;" parent="1" vertex="1">
          <mxGeometry x="1341.25" y="1910" width="190" height="50" as="geometry" />
        </mxCell>
        <mxCell id="9oPECJLN3mcHFEdt0U46-498" value="교회 소개" style="text;html=1;points=[];align=left;verticalAlign=top;spacingTop=-4;fontSize=14;fontFamily=Verdana" parent="1" vertex="1">
          <mxGeometry x="1591.25" y="1925" width="60" height="20" as="geometry" />
        </mxCell>
        <mxCell id="9oPECJLN3mcHFEdt0U46-499" value="예배와 말씀" style="text;html=1;points=[];align=left;verticalAlign=top;spacingTop=-4;fontSize=14;fontFamily=Verdana" parent="1" vertex="1">
          <mxGeometry x="1691.25" y="1925" width="60" height="20" as="geometry" />
        </mxCell>
        <mxCell id="9oPECJLN3mcHFEdt0U46-500" value="양육과 교육" style="text;html=1;points=[];align=left;verticalAlign=top;spacingTop=-4;fontSize=14;fontFamily=Verdana" parent="1" vertex="1">
          <mxGeometry x="1791.25" y="1925" width="60" height="20" as="geometry" />
        </mxCell>
        <mxCell id="9oPECJLN3mcHFEdt0U46-501" value="돌봄과 선교" style="text;html=1;points=[];align=left;verticalAlign=top;spacingTop=-4;fontSize=14;fontFamily=Verdana" parent="1" vertex="1">
          <mxGeometry x="1891.25" y="1925" width="60" height="20" as="geometry" />
        </mxCell>
        <mxCell id="9oPECJLN3mcHFEdt0U46-502" value="" style="line;strokeWidth=1;html=1;rounded=0;shadow=0;labelBackgroundColor=none;fillColor=none;fontFamily=Verdana;fontSize=14;fontColor=#000000;align=center;comic=1;" parent="1" vertex="1">
          <mxGeometry x="1321.25" y="1990" width="740" height="10" as="geometry" />
        </mxCell>
        <mxCell id="9oPECJLN3mcHFEdt0U46-503" value="화면 설명" style="shape=table;startSize=30;container=1;collapsible=0;childLayout=tableLayout;fixedRows=1;rowLines=0;fontStyle=0;strokeColor=default;fontSize=16;fontColor=#000000;fillColor=#CCCCCC;" parent="1" vertex="1">
          <mxGeometry x="2101.25" y="1910" width="270" height="70" as="geometry" />
        </mxCell>
        <mxCell id="9oPECJLN3mcHFEdt0U46-504" value="" style="shape=tableRow;horizontal=0;startSize=0;swimlaneHead=0;swimlaneBody=0;top=0;left=0;bottom=0;right=0;collapsible=0;dropTarget=0;fillColor=none;points=[[0,0.5],[1,0.5]];portConstraint=eastwest;strokeColor=inherit;fontSize=16;fontColor=#FFFFFF;" parent="9oPECJLN3mcHFEdt0U46-503" vertex="1">
          <mxGeometry y="30" width="270" height="40" as="geometry" />
        </mxCell>
        <mxCell id="9oPECJLN3mcHFEdt0U46-505" value="1" style="shape=partialRectangle;html=1;whiteSpace=wrap;connectable=0;fillColor=none;top=0;left=0;bottom=0;right=0;overflow=hidden;pointerEvents=1;strokeColor=inherit;fontSize=16;fontColor=#000000;" parent="9oPECJLN3mcHFEdt0U46-504" vertex="1">
          <mxGeometry width="40" height="40" as="geometry">
            <mxRectangle width="40" height="40" as="alternateBounds" />
          </mxGeometry>
        </mxCell>
        <mxCell id="9oPECJLN3mcHFEdt0U46-506" value="Ajax로 구현" style="shape=partialRectangle;html=1;whiteSpace=wrap;connectable=0;fillColor=none;top=0;left=0;bottom=0;right=0;align=left;spacingLeft=6;overflow=hidden;strokeColor=inherit;fontSize=15;fontColor=#000000;" parent="9oPECJLN3mcHFEdt0U46-504" vertex="1">
          <mxGeometry x="40" width="230" height="40" as="geometry">
            <mxRectangle width="230" height="40" as="alternateBounds" />
          </mxGeometry>
        </mxCell>
        <mxCell id="9oPECJLN3mcHFEdt0U46-507" value="" style="line;strokeWidth=1;html=1;rounded=0;shadow=0;labelBackgroundColor=none;fillColor=none;fontFamily=Verdana;fontSize=14;fontColor=#000000;align=center;comic=1;" parent="1" vertex="1">
          <mxGeometry x="1321.25" y="2600" width="740" height="10" as="geometry" />
        </mxCell>
        <mxCell id="9oPECJLN3mcHFEdt0U46-508" value="로그인" style="text;html=1;strokeColor=none;fillColor=none;align=center;verticalAlign=middle;whiteSpace=wrap;rounded=0;fontColor=#000000;" parent="1" vertex="1">
          <mxGeometry x="1971.25" y="2630" width="60" height="30" as="geometry" />
        </mxCell>
        <mxCell id="9oPECJLN3mcHFEdt0U46-509" value="FOOTER" style="text;html=1;strokeColor=none;fillColor=none;align=center;verticalAlign=middle;whiteSpace=wrap;rounded=0;fontColor=#000000;" parent="1" vertex="1">
          <mxGeometry x="1341.25" y="2630" width="60" height="30" as="geometry" />
        </mxCell>
        <mxCell id="9oPECJLN3mcHFEdt0U46-512" value="모두 승인하기" style="rounded=1;whiteSpace=wrap;html=1;fontSize=16;" parent="1" vertex="1">
          <mxGeometry x="1898.75" y="2540" width="130" height="40" as="geometry" />
        </mxCell>
        <mxCell id="9oPECJLN3mcHFEdt0U46-520" value="" style="endArrow=none;html=1;rounded=0;fontSize=16;" parent="1" edge="1">
          <mxGeometry width="50" height="50" relative="1" as="geometry">
            <mxPoint x="1371.25" y="2120" as="sourcePoint" />
            <mxPoint x="2001.25" y="2120" as="targetPoint" />
          </mxGeometry>
        </mxCell>
        <mxCell id="9oPECJLN3mcHFEdt0U46-530" value="아이디" style="text;html=1;strokeColor=none;fillColor=none;align=center;verticalAlign=middle;whiteSpace=wrap;rounded=0;fontSize=16;" parent="1" vertex="1">
          <mxGeometry x="1391.25" y="2145" width="60" height="30" as="geometry" />
        </mxCell>
        <mxCell id="9oPECJLN3mcHFEdt0U46-531" value="이름" style="text;html=1;strokeColor=none;fillColor=none;align=center;verticalAlign=middle;whiteSpace=wrap;rounded=0;fontSize=16;" parent="1" vertex="1">
          <mxGeometry x="1471.25" y="2145" width="60" height="30" as="geometry" />
        </mxCell>
        <mxCell id="9oPECJLN3mcHFEdt0U46-532" value="직분" style="text;html=1;strokeColor=none;fillColor=none;align=center;verticalAlign=middle;whiteSpace=wrap;rounded=0;fontSize=16;" parent="1" vertex="1">
          <mxGeometry x="1551.25" y="2145" width="60" height="30" as="geometry" />
        </mxCell>
        <mxCell id="9oPECJLN3mcHFEdt0U46-533" value="" style="endArrow=none;html=1;rounded=0;fontSize=16;" parent="1" edge="1">
          <mxGeometry width="50" height="50" relative="1" as="geometry">
            <mxPoint x="1371.25" y="2195" as="sourcePoint" />
            <mxPoint x="2001.25" y="2195" as="targetPoint" />
          </mxGeometry>
        </mxCell>
        <mxCell id="9oPECJLN3mcHFEdt0U46-534" value="승인" style="rounded=1;whiteSpace=wrap;html=1;fontSize=16;" parent="1" vertex="1">
          <mxGeometry x="1741.25" y="2140" width="90" height="40" as="geometry" />
        </mxCell>
        <mxCell id="9oPECJLN3mcHFEdt0U46-535" value="거절" style="rounded=1;whiteSpace=wrap;html=1;fontSize=16;" parent="1" vertex="1">
          <mxGeometry x="1851.25" y="2140" width="90" height="40" as="geometry" />
        </mxCell>
        <mxCell id="9oPECJLN3mcHFEdt0U46-536" value="아이디" style="text;html=1;strokeColor=none;fillColor=none;align=center;verticalAlign=middle;whiteSpace=wrap;rounded=0;fontSize=16;" parent="1" vertex="1">
          <mxGeometry x="1391.25" y="2215" width="60" height="30" as="geometry" />
        </mxCell>
        <mxCell id="9oPECJLN3mcHFEdt0U46-537" value="이름" style="text;html=1;strokeColor=none;fillColor=none;align=center;verticalAlign=middle;whiteSpace=wrap;rounded=0;fontSize=16;" parent="1" vertex="1">
          <mxGeometry x="1471.25" y="2215" width="60" height="30" as="geometry" />
        </mxCell>
        <mxCell id="9oPECJLN3mcHFEdt0U46-538" value="직분" style="text;html=1;strokeColor=none;fillColor=none;align=center;verticalAlign=middle;whiteSpace=wrap;rounded=0;fontSize=16;" parent="1" vertex="1">
          <mxGeometry x="1551.25" y="2215" width="60" height="30" as="geometry" />
        </mxCell>
        <mxCell id="9oPECJLN3mcHFEdt0U46-539" value="" style="endArrow=none;html=1;rounded=0;fontSize=16;" parent="1" edge="1">
          <mxGeometry width="50" height="50" relative="1" as="geometry">
            <mxPoint x="1371.25" y="2265" as="sourcePoint" />
            <mxPoint x="2001.25" y="2265" as="targetPoint" />
          </mxGeometry>
        </mxCell>
        <mxCell id="9oPECJLN3mcHFEdt0U46-540" value="승인" style="rounded=1;whiteSpace=wrap;html=1;fontSize=16;" parent="1" vertex="1">
          <mxGeometry x="1741.25" y="2210" width="90" height="40" as="geometry" />
        </mxCell>
        <mxCell id="9oPECJLN3mcHFEdt0U46-541" value="거절" style="rounded=1;whiteSpace=wrap;html=1;fontSize=16;" parent="1" vertex="1">
          <mxGeometry x="1851.25" y="2210" width="90" height="40" as="geometry" />
        </mxCell>
        <mxCell id="9oPECJLN3mcHFEdt0U46-542" value="아이디" style="text;html=1;strokeColor=none;fillColor=none;align=center;verticalAlign=middle;whiteSpace=wrap;rounded=0;fontSize=16;" parent="1" vertex="1">
          <mxGeometry x="1393.75" y="2285" width="60" height="30" as="geometry" />
        </mxCell>
        <mxCell id="9oPECJLN3mcHFEdt0U46-543" value="이름" style="text;html=1;strokeColor=none;fillColor=none;align=center;verticalAlign=middle;whiteSpace=wrap;rounded=0;fontSize=16;" parent="1" vertex="1">
          <mxGeometry x="1473.75" y="2285" width="60" height="30" as="geometry" />
        </mxCell>
        <mxCell id="9oPECJLN3mcHFEdt0U46-544" value="직분" style="text;html=1;strokeColor=none;fillColor=none;align=center;verticalAlign=middle;whiteSpace=wrap;rounded=0;fontSize=16;" parent="1" vertex="1">
          <mxGeometry x="1553.75" y="2285" width="60" height="30" as="geometry" />
        </mxCell>
        <mxCell id="9oPECJLN3mcHFEdt0U46-545" value="" style="endArrow=none;html=1;rounded=0;fontSize=16;" parent="1" edge="1">
          <mxGeometry width="50" height="50" relative="1" as="geometry">
            <mxPoint x="1373.75" y="2335" as="sourcePoint" />
            <mxPoint x="2003.75" y="2335" as="targetPoint" />
          </mxGeometry>
        </mxCell>
        <mxCell id="9oPECJLN3mcHFEdt0U46-546" value="승인" style="rounded=1;whiteSpace=wrap;html=1;fontSize=16;" parent="1" vertex="1">
          <mxGeometry x="1743.75" y="2280" width="90" height="40" as="geometry" />
        </mxCell>
        <mxCell id="9oPECJLN3mcHFEdt0U46-547" value="거절" style="rounded=1;whiteSpace=wrap;html=1;fontSize=16;" parent="1" vertex="1">
          <mxGeometry x="1853.75" y="2280" width="90" height="40" as="geometry" />
        </mxCell>
        <mxCell id="9oPECJLN3mcHFEdt0U46-548" value="아이디" style="text;html=1;strokeColor=none;fillColor=none;align=center;verticalAlign=middle;whiteSpace=wrap;rounded=0;fontSize=16;" parent="1" vertex="1">
          <mxGeometry x="1396.25" y="2355" width="60" height="30" as="geometry" />
        </mxCell>
        <mxCell id="9oPECJLN3mcHFEdt0U46-549" value="이름" style="text;html=1;strokeColor=none;fillColor=none;align=center;verticalAlign=middle;whiteSpace=wrap;rounded=0;fontSize=16;" parent="1" vertex="1">
          <mxGeometry x="1476.25" y="2355" width="60" height="30" as="geometry" />
        </mxCell>
        <mxCell id="9oPECJLN3mcHFEdt0U46-550" value="직분" style="text;html=1;strokeColor=none;fillColor=none;align=center;verticalAlign=middle;whiteSpace=wrap;rounded=0;fontSize=16;" parent="1" vertex="1">
          <mxGeometry x="1556.25" y="2355" width="60" height="30" as="geometry" />
        </mxCell>
        <mxCell id="9oPECJLN3mcHFEdt0U46-551" value="" style="endArrow=none;html=1;rounded=0;fontSize=16;" parent="1" edge="1">
          <mxGeometry width="50" height="50" relative="1" as="geometry">
            <mxPoint x="1376.25" y="2405" as="sourcePoint" />
            <mxPoint x="2006.25" y="2405" as="targetPoint" />
          </mxGeometry>
        </mxCell>
        <mxCell id="9oPECJLN3mcHFEdt0U46-552" value="승인" style="rounded=1;whiteSpace=wrap;html=1;fontSize=16;" parent="1" vertex="1">
          <mxGeometry x="1741.25" y="2350" width="90" height="40" as="geometry" />
        </mxCell>
        <mxCell id="9oPECJLN3mcHFEdt0U46-553" value="거절" style="rounded=1;whiteSpace=wrap;html=1;fontSize=16;" parent="1" vertex="1">
          <mxGeometry x="1856.25" y="2350" width="90" height="40" as="geometry" />
        </mxCell>
        <mxCell id="9oPECJLN3mcHFEdt0U46-554" value="아이디" style="text;html=1;strokeColor=none;fillColor=none;align=center;verticalAlign=middle;whiteSpace=wrap;rounded=0;fontSize=16;" parent="1" vertex="1">
          <mxGeometry x="1396.25" y="2425" width="60" height="30" as="geometry" />
        </mxCell>
        <mxCell id="9oPECJLN3mcHFEdt0U46-555" value="이름" style="text;html=1;strokeColor=none;fillColor=none;align=center;verticalAlign=middle;whiteSpace=wrap;rounded=0;fontSize=16;" parent="1" vertex="1">
          <mxGeometry x="1476.25" y="2425" width="60" height="30" as="geometry" />
        </mxCell>
        <mxCell id="9oPECJLN3mcHFEdt0U46-556" value="직분" style="text;html=1;strokeColor=none;fillColor=none;align=center;verticalAlign=middle;whiteSpace=wrap;rounded=0;fontSize=16;" parent="1" vertex="1">
          <mxGeometry x="1556.25" y="2425" width="60" height="30" as="geometry" />
        </mxCell>
        <mxCell id="9oPECJLN3mcHFEdt0U46-557" value="" style="endArrow=none;html=1;rounded=0;fontSize=16;" parent="1" edge="1">
          <mxGeometry width="50" height="50" relative="1" as="geometry">
            <mxPoint x="1376.25" y="2475" as="sourcePoint" />
            <mxPoint x="2006.25" y="2475" as="targetPoint" />
          </mxGeometry>
        </mxCell>
        <mxCell id="9oPECJLN3mcHFEdt0U46-558" value="승인" style="rounded=1;whiteSpace=wrap;html=1;fontSize=16;" parent="1" vertex="1">
          <mxGeometry x="1741.25" y="2415" width="90" height="40" as="geometry" />
        </mxCell>
        <mxCell id="9oPECJLN3mcHFEdt0U46-559" value="거절" style="rounded=1;whiteSpace=wrap;html=1;fontSize=16;" parent="1" vertex="1">
          <mxGeometry x="1856.25" y="2420" width="90" height="40" as="geometry" />
        </mxCell>
        <mxCell id="9oPECJLN3mcHFEdt0U46-561" value="&lt;span style=&quot;font-size: 30px;&quot;&gt;&lt;b&gt;회원가입 승인&lt;/b&gt;&lt;/span&gt;" style="text;html=1;strokeColor=none;fillColor=none;align=center;verticalAlign=middle;whiteSpace=wrap;rounded=0;" parent="1" vertex="1">
          <mxGeometry x="1566.25" y="2040" width="210" height="30" as="geometry" />
        </mxCell>
        <mxCell id="9oPECJLN3mcHFEdt0U46-562" value="LOGO" style="whiteSpace=wrap;html=1;rounded=0;shadow=0;labelBackgroundColor=none;strokeWidth=1;fontFamily=Verdana;fontSize=28;align=center;comic=1;" parent="1" vertex="1">
          <mxGeometry x="2450" y="1900" width="190" height="50" as="geometry" />
        </mxCell>
        <mxCell id="9oPECJLN3mcHFEdt0U46-563" value="교회 소개" style="text;html=1;points=[];align=left;verticalAlign=top;spacingTop=-4;fontSize=14;fontFamily=Verdana" parent="1" vertex="1">
          <mxGeometry x="2700" y="1915" width="60" height="20" as="geometry" />
        </mxCell>
        <mxCell id="9oPECJLN3mcHFEdt0U46-564" value="예배와 말씀" style="text;html=1;points=[];align=left;verticalAlign=top;spacingTop=-4;fontSize=14;fontFamily=Verdana" parent="1" vertex="1">
          <mxGeometry x="2800" y="1915" width="60" height="20" as="geometry" />
        </mxCell>
        <mxCell id="9oPECJLN3mcHFEdt0U46-565" value="양육과 교육" style="text;html=1;points=[];align=left;verticalAlign=top;spacingTop=-4;fontSize=14;fontFamily=Verdana" parent="1" vertex="1">
          <mxGeometry x="2900" y="1915" width="60" height="20" as="geometry" />
        </mxCell>
        <mxCell id="9oPECJLN3mcHFEdt0U46-566" value="돌봄과 선교" style="text;html=1;points=[];align=left;verticalAlign=top;spacingTop=-4;fontSize=14;fontFamily=Verdana" parent="1" vertex="1">
          <mxGeometry x="3000" y="1915" width="60" height="20" as="geometry" />
        </mxCell>
        <mxCell id="9oPECJLN3mcHFEdt0U46-567" value="로그인" style="text;html=1;strokeColor=none;fillColor=none;align=center;verticalAlign=middle;whiteSpace=wrap;rounded=0;fontColor=#000000;" parent="1" vertex="1">
          <mxGeometry x="3080" y="2620" width="60" height="30" as="geometry" />
        </mxCell>
        <mxCell id="9oPECJLN3mcHFEdt0U46-568" value="FOOTER" style="text;html=1;strokeColor=none;fillColor=none;align=center;verticalAlign=middle;whiteSpace=wrap;rounded=0;fontColor=#000000;" parent="1" vertex="1">
          <mxGeometry x="2450" y="2620" width="60" height="30" as="geometry" />
        </mxCell>
        <mxCell id="9oPECJLN3mcHFEdt0U46-570" value="" style="endArrow=none;html=1;rounded=0;fontSize=16;" parent="1" edge="1">
          <mxGeometry width="50" height="50" relative="1" as="geometry">
            <mxPoint x="2480" y="2110" as="sourcePoint" />
            <mxPoint x="3110" y="2110" as="targetPoint" />
          </mxGeometry>
        </mxCell>
        <mxCell id="9oPECJLN3mcHFEdt0U46-571" value="아이디" style="text;html=1;strokeColor=none;fillColor=none;align=center;verticalAlign=middle;whiteSpace=wrap;rounded=0;fontSize=16;" parent="1" vertex="1">
          <mxGeometry x="2500" y="2135" width="60" height="30" as="geometry" />
        </mxCell>
        <mxCell id="9oPECJLN3mcHFEdt0U46-572" value="이름" style="text;html=1;strokeColor=none;fillColor=none;align=center;verticalAlign=middle;whiteSpace=wrap;rounded=0;fontSize=16;" parent="1" vertex="1">
          <mxGeometry x="2580" y="2135" width="60" height="30" as="geometry" />
        </mxCell>
        <mxCell id="9oPECJLN3mcHFEdt0U46-573" value="직분" style="text;html=1;strokeColor=none;fillColor=none;align=center;verticalAlign=middle;whiteSpace=wrap;rounded=0;fontSize=16;" parent="1" vertex="1">
          <mxGeometry x="2660" y="2135" width="60" height="30" as="geometry" />
        </mxCell>
        <mxCell id="9oPECJLN3mcHFEdt0U46-574" value="" style="endArrow=none;html=1;rounded=0;fontSize=16;" parent="1" edge="1">
          <mxGeometry width="50" height="50" relative="1" as="geometry">
            <mxPoint x="2480" y="2185" as="sourcePoint" />
            <mxPoint x="3110" y="2185" as="targetPoint" />
          </mxGeometry>
        </mxCell>
        <mxCell id="9oPECJLN3mcHFEdt0U46-576" value="회원삭제" style="rounded=1;whiteSpace=wrap;html=1;fontSize=16;" parent="1" vertex="1">
          <mxGeometry x="2960" y="2130" width="90" height="40" as="geometry" />
        </mxCell>
        <mxCell id="9oPECJLN3mcHFEdt0U46-577" value="아이디" style="text;html=1;strokeColor=none;fillColor=none;align=center;verticalAlign=middle;whiteSpace=wrap;rounded=0;fontSize=16;" parent="1" vertex="1">
          <mxGeometry x="2500" y="2205" width="60" height="30" as="geometry" />
        </mxCell>
        <mxCell id="9oPECJLN3mcHFEdt0U46-578" value="이름" style="text;html=1;strokeColor=none;fillColor=none;align=center;verticalAlign=middle;whiteSpace=wrap;rounded=0;fontSize=16;" parent="1" vertex="1">
          <mxGeometry x="2580" y="2205" width="60" height="30" as="geometry" />
        </mxCell>
        <mxCell id="9oPECJLN3mcHFEdt0U46-579" value="직분" style="text;html=1;strokeColor=none;fillColor=none;align=center;verticalAlign=middle;whiteSpace=wrap;rounded=0;fontSize=16;" parent="1" vertex="1">
          <mxGeometry x="2660" y="2205" width="60" height="30" as="geometry" />
        </mxCell>
        <mxCell id="9oPECJLN3mcHFEdt0U46-580" value="" style="endArrow=none;html=1;rounded=0;fontSize=16;" parent="1" edge="1">
          <mxGeometry width="50" height="50" relative="1" as="geometry">
            <mxPoint x="2480" y="2255" as="sourcePoint" />
            <mxPoint x="3110" y="2255" as="targetPoint" />
          </mxGeometry>
        </mxCell>
        <mxCell id="9oPECJLN3mcHFEdt0U46-583" value="아이디" style="text;html=1;strokeColor=none;fillColor=none;align=center;verticalAlign=middle;whiteSpace=wrap;rounded=0;fontSize=16;" parent="1" vertex="1">
          <mxGeometry x="2502.5" y="2275" width="60" height="30" as="geometry" />
        </mxCell>
        <mxCell id="9oPECJLN3mcHFEdt0U46-584" value="이름" style="text;html=1;strokeColor=none;fillColor=none;align=center;verticalAlign=middle;whiteSpace=wrap;rounded=0;fontSize=16;" parent="1" vertex="1">
          <mxGeometry x="2582.5" y="2275" width="60" height="30" as="geometry" />
        </mxCell>
        <mxCell id="9oPECJLN3mcHFEdt0U46-585" value="직분" style="text;html=1;strokeColor=none;fillColor=none;align=center;verticalAlign=middle;whiteSpace=wrap;rounded=0;fontSize=16;" parent="1" vertex="1">
          <mxGeometry x="2662.5" y="2275" width="60" height="30" as="geometry" />
        </mxCell>
        <mxCell id="9oPECJLN3mcHFEdt0U46-586" value="" style="endArrow=none;html=1;rounded=0;fontSize=16;" parent="1" edge="1">
          <mxGeometry width="50" height="50" relative="1" as="geometry">
            <mxPoint x="2482.5" y="2325" as="sourcePoint" />
            <mxPoint x="3112.5" y="2325" as="targetPoint" />
          </mxGeometry>
        </mxCell>
        <mxCell id="9oPECJLN3mcHFEdt0U46-589" value="아이디" style="text;html=1;strokeColor=none;fillColor=none;align=center;verticalAlign=middle;whiteSpace=wrap;rounded=0;fontSize=16;" parent="1" vertex="1">
          <mxGeometry x="2505" y="2345" width="60" height="30" as="geometry" />
        </mxCell>
        <mxCell id="9oPECJLN3mcHFEdt0U46-590" value="이름" style="text;html=1;strokeColor=none;fillColor=none;align=center;verticalAlign=middle;whiteSpace=wrap;rounded=0;fontSize=16;" parent="1" vertex="1">
          <mxGeometry x="2585" y="2345" width="60" height="30" as="geometry" />
        </mxCell>
        <mxCell id="9oPECJLN3mcHFEdt0U46-591" value="직분" style="text;html=1;strokeColor=none;fillColor=none;align=center;verticalAlign=middle;whiteSpace=wrap;rounded=0;fontSize=16;" parent="1" vertex="1">
          <mxGeometry x="2665" y="2345" width="60" height="30" as="geometry" />
        </mxCell>
        <mxCell id="9oPECJLN3mcHFEdt0U46-592" value="" style="endArrow=none;html=1;rounded=0;fontSize=16;" parent="1" edge="1">
          <mxGeometry width="50" height="50" relative="1" as="geometry">
            <mxPoint x="2485" y="2395" as="sourcePoint" />
            <mxPoint x="3115" y="2395" as="targetPoint" />
          </mxGeometry>
        </mxCell>
        <mxCell id="9oPECJLN3mcHFEdt0U46-595" value="아이디" style="text;html=1;strokeColor=none;fillColor=none;align=center;verticalAlign=middle;whiteSpace=wrap;rounded=0;fontSize=16;" parent="1" vertex="1">
          <mxGeometry x="2505" y="2415" width="60" height="30" as="geometry" />
        </mxCell>
        <mxCell id="9oPECJLN3mcHFEdt0U46-596" value="이름" style="text;html=1;strokeColor=none;fillColor=none;align=center;verticalAlign=middle;whiteSpace=wrap;rounded=0;fontSize=16;" parent="1" vertex="1">
          <mxGeometry x="2585" y="2415" width="60" height="30" as="geometry" />
        </mxCell>
        <mxCell id="9oPECJLN3mcHFEdt0U46-597" value="직분" style="text;html=1;strokeColor=none;fillColor=none;align=center;verticalAlign=middle;whiteSpace=wrap;rounded=0;fontSize=16;" parent="1" vertex="1">
          <mxGeometry x="2665" y="2415" width="60" height="30" as="geometry" />
        </mxCell>
        <mxCell id="9oPECJLN3mcHFEdt0U46-598" value="" style="endArrow=none;html=1;rounded=0;fontSize=16;" parent="1" edge="1">
          <mxGeometry width="50" height="50" relative="1" as="geometry">
            <mxPoint x="2485" y="2465" as="sourcePoint" />
            <mxPoint x="3115" y="2465" as="targetPoint" />
          </mxGeometry>
        </mxCell>
        <mxCell id="9oPECJLN3mcHFEdt0U46-601" value="&lt;span style=&quot;font-size: 30px;&quot;&gt;&lt;b&gt;회원 목록&lt;/b&gt;&lt;/span&gt;" style="text;html=1;strokeColor=none;fillColor=none;align=center;verticalAlign=middle;whiteSpace=wrap;rounded=0;" parent="1" vertex="1">
          <mxGeometry x="2675" y="2030" width="210" height="30" as="geometry" />
        </mxCell>
        <mxCell id="9oPECJLN3mcHFEdt0U46-602" value="회원삭제" style="rounded=1;whiteSpace=wrap;html=1;fontSize=16;" parent="1" vertex="1">
          <mxGeometry x="2960" y="2200" width="90" height="40" as="geometry" />
        </mxCell>
        <mxCell id="9oPECJLN3mcHFEdt0U46-603" value="회원삭제" style="rounded=1;whiteSpace=wrap;html=1;fontSize=16;" parent="1" vertex="1">
          <mxGeometry x="2960" y="2270" width="90" height="40" as="geometry" />
        </mxCell>
        <mxCell id="9oPECJLN3mcHFEdt0U46-604" value="회원삭제" style="rounded=1;whiteSpace=wrap;html=1;fontSize=16;" parent="1" vertex="1">
          <mxGeometry x="2962.5" y="2415" width="90" height="40" as="geometry" />
        </mxCell>
        <mxCell id="9oPECJLN3mcHFEdt0U46-605" value="회원삭제" style="rounded=1;whiteSpace=wrap;html=1;fontSize=16;" parent="1" vertex="1">
          <mxGeometry x="2960" y="2340" width="90" height="40" as="geometry" />
        </mxCell>
        <mxCell id="9oPECJLN3mcHFEdt0U46-608" value="" style="whiteSpace=wrap;html=1;rounded=0;shadow=0;labelBackgroundColor=none;strokeColor=#000000;strokeWidth=1;fillColor=none;fontFamily=Verdana;fontSize=12;fontColor=#000000;align=center;comic=1;" parent="1" vertex="1">
          <mxGeometry x="2430" y="1870" width="740" height="810" as="geometry" />
        </mxCell>
        <mxCell id="9oPECJLN3mcHFEdt0U46-610" value="" style="line;strokeWidth=1;html=1;rounded=0;shadow=0;labelBackgroundColor=none;fillColor=none;fontFamily=Verdana;fontSize=14;fontColor=#000000;align=center;comic=1;" parent="1" vertex="1">
          <mxGeometry x="2432.5" y="1980" width="740" height="10" as="geometry" />
        </mxCell>
        <mxCell id="9oPECJLN3mcHFEdt0U46-611" value="" style="line;strokeWidth=1;html=1;rounded=0;shadow=0;labelBackgroundColor=none;fillColor=none;fontFamily=Verdana;fontSize=14;fontColor=#000000;align=center;comic=1;" parent="1" vertex="1">
          <mxGeometry x="2432.5" y="2590" width="740" height="10" as="geometry" />
        </mxCell>
        <mxCell id="9oPECJLN3mcHFEdt0U46-612" value="" style="whiteSpace=wrap;html=1;rounded=0;shadow=0;labelBackgroundColor=none;strokeColor=#000000;strokeWidth=1;fillColor=none;fontFamily=Verdana;fontSize=12;fontColor=#000000;align=center;comic=1;" parent="1" vertex="1">
          <mxGeometry x="1321.25" y="1870" width="740" height="810" as="geometry" />
        </mxCell>
        <mxCell id="9oPECJLN3mcHFEdt0U46-613" value="&lt;font color=&quot;#ffffff&quot;&gt;1&lt;/font&gt;" style="ellipse;whiteSpace=wrap;html=1;aspect=fixed;fillColor=#F83232;strokeColor=#b85450;" parent="1" vertex="1">
          <mxGeometry x="1728.75" y="2130" width="20" height="20" as="geometry" />
        </mxCell>
        <mxCell id="9oPECJLN3mcHFEdt0U46-614" value="" style="whiteSpace=wrap;html=1;rounded=0;shadow=0;labelBackgroundColor=none;strokeColor=#000000;strokeWidth=1;fillColor=none;fontFamily=Verdana;fontSize=12;fontColor=#000000;align=center;comic=1;" parent="1" vertex="1">
          <mxGeometry x="1335" y="945" width="740" height="810" as="geometry" />
        </mxCell>
        <mxCell id="9oPECJLN3mcHFEdt0U46-615" value="&lt;font color=&quot;#ffffff&quot;&gt;1&lt;/font&gt;" style="ellipse;whiteSpace=wrap;html=1;aspect=fixed;fillColor=#F83232;strokeColor=#b85450;" parent="1" vertex="1">
          <mxGeometry x="2952.5" y="2120" width="20" height="20" as="geometry" />
        </mxCell>
        <mxCell id="9oPECJLN3mcHFEdt0U46-617" value="화면 설명" style="shape=table;startSize=30;container=1;collapsible=0;childLayout=tableLayout;fixedRows=1;rowLines=0;fontStyle=0;strokeColor=default;fontSize=16;fontColor=#000000;fillColor=#CCCCCC;" parent="1" vertex="1">
          <mxGeometry x="3192.5" y="1880" width="270" height="70" as="geometry" />
        </mxCell>
        <mxCell id="9oPECJLN3mcHFEdt0U46-618" value="" style="shape=tableRow;horizontal=0;startSize=0;swimlaneHead=0;swimlaneBody=0;top=0;left=0;bottom=0;right=0;collapsible=0;dropTarget=0;fillColor=none;points=[[0,0.5],[1,0.5]];portConstraint=eastwest;strokeColor=inherit;fontSize=16;fontColor=#FFFFFF;" parent="9oPECJLN3mcHFEdt0U46-617" vertex="1">
          <mxGeometry y="30" width="270" height="40" as="geometry" />
        </mxCell>
        <mxCell id="9oPECJLN3mcHFEdt0U46-619" value="1" style="shape=partialRectangle;html=1;whiteSpace=wrap;connectable=0;fillColor=none;top=0;left=0;bottom=0;right=0;overflow=hidden;pointerEvents=1;strokeColor=inherit;fontSize=16;fontColor=#000000;" parent="9oPECJLN3mcHFEdt0U46-618" vertex="1">
          <mxGeometry width="40" height="40" as="geometry">
            <mxRectangle width="40" height="40" as="alternateBounds" />
          </mxGeometry>
        </mxCell>
        <mxCell id="9oPECJLN3mcHFEdt0U46-620" value="&#39;실제로 삭제하시겠습니까?&#39; 확인 후 삭제" style="shape=partialRectangle;html=1;whiteSpace=wrap;connectable=0;fillColor=none;top=0;left=0;bottom=0;right=0;align=left;spacingLeft=6;overflow=hidden;strokeColor=inherit;fontSize=15;fontColor=#000000;" parent="9oPECJLN3mcHFEdt0U46-618" vertex="1">
          <mxGeometry x="40" width="230" height="40" as="geometry">
            <mxRectangle width="230" height="40" as="alternateBounds" />
          </mxGeometry>
        </mxCell>
      </root>
    </mxGraphModel>
  </diagram>
</mxfile>
